<?xml version="1.0" encoding="utf-8"?>
<!-- Generator: Adobe Illustrator 24.3.0, SVG Export Plug-In . SVG Version: 6.00 Build 0)  -->
<svg version="1.1" id="Layer_1" xmlns="http://www.w3.org/2000/svg" xmlns:xlink="http://www.w3.org/1999/xlink" x="0px" y="0px"
	 viewBox="0 0 706 180.9" style="enable-background:new 0 0 706 180.9;" xml:space="preserve">
<style type="text/css">
	.st0{clip-path:url(#SVGID_2_);fill:#FFFFFF;}
	.st1{clip-path:url(#SVGID_2_);}
	.st2{fill:#FFFFFF;}
	.st3{clip-path:url(#SVGID_4_);fill:#FFFFFF;}
	.st4{clip-path:url(#SVGID_6_);fill:#FFFFFF;}
	.st5{clip-path:url(#SVGID_8_);fill:#FFFFFF;}
	.st6{clip-path:url(#SVGID_10_);fill:#FFFFFF;}
</style>
<g>
	<defs>
		<rect id="SVGID_1_" x="2.3" y="2.3" width="698.7" height="177.6"/>
	</defs>
	<clipPath id="SVGID_2_">
		<use xlink:href="#SVGID_1_"  style="overflow:visible;"/>
	</clipPath>
	<path class="st0" d="M202.3,121.4l11.1-14.2c3.2,4.4,6.3,6.5,9.7,6.5c4.3,0,6.6-2.8,6.6-8.2V80.3H209V63.4h41.1v40.8
		c0,18.2-8.8,27.1-25.2,27.1C215.3,131.3,207.4,127.9,202.3,121.4"/>
	<rect x="327.6" y="63.4" class="st0" width="20.6" height="68.3"/>
	<polygon class="st0" points="414.4,63.4 414.4,131.7 397.5,131.7 374.2,100.7 374.2,131.7 354.2,131.7 354.2,63.4 371.1,63.4 
		394.3,94.4 394.3,63.4 	"/>
	<polygon class="st0" points="490.4,63.4 464.6,131.7 444.3,131.7 418.5,63.4 440.6,63.4 455.2,103.3 470.2,63.4 	"/>
	<rect x="494.5" y="63.4" class="st0" width="20.6" height="68.3"/>
	<polygon class="st0" points="521.2,63.4 541.8,63.4 541.8,113.8 569.4,113.8 569.4,131.7 521.2,131.7 	"/>
	<polygon class="st0" points="575.1,63.4 595.7,63.4 595.7,113.8 623.3,113.8 623.3,131.7 575.1,131.7 	"/>
	<polygon class="st0" points="679.7,114.3 679.7,131.7 628.9,131.7 628.9,63.4 678.6,63.4 678.6,80.8 649.2,80.8 649.2,88.8 
		675,88.8 675,105.4 649.2,105.4 649.2,114.3 	"/>
	<path class="st0" d="M289.1,113.9c-9.1,0-16.5-7.4-16.5-16.5c0-9.1,7.4-16.5,16.5-16.5c9.1,0,16.5,7.4,16.5,16.5
		C305.6,106.5,298.2,113.9,289.1,113.9 M289.1,63.4c-18.7,0-33.9,15.2-33.9,33.9c0,18.7,15.2,33.9,33.9,33.9
		c18.7,0,33.9-15.2,33.9-33.9C323,78.6,307.8,63.4,289.1,63.4"/>
	<g class="st1">
		<path class="st2" d="M333.7,33.2c0-11.7,9-19.9,21.2-19.9c7.4,0,13.3,2.7,17.1,7.6l-8.1,7.2c-2.2-2.8-4.9-4.5-8.3-4.5
			c-5.3,0-8.9,3.7-8.9,9.5c0,5.8,3.6,9.5,8.9,9.5c3.4,0,6.1-1.6,8.3-4.5l8.1,7.2c-3.8,4.9-9.6,7.6-17.1,7.6
			C342.7,53.1,333.7,44.8,333.7,33.2z"/>
		<path class="st2" d="M372.3,33.2c0-11.5,9.1-19.9,21.5-19.9c12.4,0,21.5,8.4,21.5,19.9c0,11.5-9.1,19.9-21.5,19.9
			C381.4,53.1,372.3,44.7,372.3,33.2z M402.3,33.2c0-5.9-3.8-9.5-8.5-9.5s-8.5,3.6-8.5,9.5s3.8,9.5,8.5,9.5S402.3,39.1,402.3,33.2z"
			/>
		<path class="st2" d="M456.4,14.1v38h-10.5l-14.5-17.3v17.3h-12.5v-38h10.5l14.5,17.3V14.1H456.4z"/>
		<path class="st2" d="M459.2,49.1l4.1-9.3c3.6,2.1,8.4,3.5,12.6,3.5c3.6,0,4.9-0.8,4.9-2.1c0-4.8-21-0.9-21-15.1
			c0-7.1,5.9-12.8,17.7-12.8c5.1,0,10.4,1.1,14.3,3.3l-3.9,9.3c-3.8-1.9-7.3-2.8-10.6-2.8c-3.8,0-4.9,1.1-4.9,2.4
			c0,4.6,21,0.8,21,14.8c0,7-5.9,12.8-17.7,12.8C469.4,53.1,463,51.5,459.2,49.1z"/>
		<path class="st2" d="M494.7,33.2c0-11.5,9.1-19.9,21.5-19.9c12.4,0,21.5,8.4,21.5,19.9c0,11.5-9.1,19.9-21.5,19.9
			C503.8,53.1,494.7,44.7,494.7,33.2z M524.7,33.2c0-5.9-3.8-9.5-8.5-9.5s-8.5,3.6-8.5,9.5s3.8,9.5,8.5,9.5S524.7,39.1,524.7,33.2z
			 M517.7,2.3h11.7L518.6,11h-8.2L517.7,2.3z"/>
		<path class="st2" d="M557.6,42.6h-3.5v9.6h-12.8v-38h18.3c10.6,0,17.3,5.5,17.3,14.3c0,5.5-2.6,9.6-7.2,12l8,11.7h-13.7
			L557.6,42.6z M558.8,24h-4.7v8.9h4.7c3.5,0,5.2-1.7,5.2-4.5S562.3,24,558.8,24z"/>
		<path class="st2" d="M579.2,33.2c0-11.7,9-19.9,21.2-19.9c7.4,0,13.3,2.7,17.1,7.6l-8.1,7.2c-2.2-2.8-4.9-4.5-8.3-4.5
			c-5.3,0-8.9,3.7-8.9,9.5c0,5.8,3.6,9.5,8.9,9.5c3.4,0,6.1-1.6,8.3-4.5l8.1,7.2c-3.8,4.9-9.6,7.6-17.1,7.6
			C588.2,53.1,579.2,44.8,579.2,33.2z"/>
		<path class="st2" d="M620.1,14.1H633v38h-12.8V14.1z"/>
		<path class="st2" d="M636.6,33.2c0-11.5,9.1-19.9,21.5-19.9c12.4,0,21.5,8.4,21.5,19.9c0,11.5-9.1,19.9-21.5,19.9
			C645.7,53.1,636.6,44.7,636.6,33.2z M666.6,33.2c0-5.9-3.8-9.5-8.5-9.5s-8.5,3.6-8.5,9.5s3.8,9.5,8.5,9.5S666.6,39.1,666.6,33.2z"
			/>
	</g>
	<g class="st1">
		<path class="st2" d="M215.5,147.3h5.3V171h-5.3V147.3z"/>
		<path class="st2" d="M246.6,147.3h5.9l7.4,14.5l7.3-14.5h5.9V171h-4.8v-16l-6.7,13.6h-3.4l-6.8-13.6v16h-4.8V147.3z"/>
		<path class="st2" d="M315.9,149.5c1.6,1.4,2.5,3.5,2.5,6.1c0,2.7-0.8,4.9-2.5,6.4c-1.7,1.5-4,2.3-7,2.3h-4.7v6.8h-5.3v-23.6h10
			C311.9,147.3,314.2,148,315.9,149.5z M312.1,158.7c0.8-0.7,1.2-1.7,1.2-3c0-1.3-0.4-2.3-1.2-3c-0.8-0.7-2-1-3.5-1h-4.4v8h4.4
			C310.1,159.7,311.3,159.4,312.1,158.7z"/>
		<path class="st2" d="M341.9,147.3h5.3v19h10.1v4.7h-15.5V147.3z"/>
		<path class="st2" d="M381.1,147.3h18v4.4h-12.7v5.1h11.4v4.4h-11.4v5.2h13v4.4h-18.4V147.3z"/>
		<path class="st2" d="M424,147.3h5.9l7.4,14.5l7.3-14.5h5.9V171h-4.8v-16l-6.7,13.6h-3.4l-6.8-13.6v16H424V147.3z"/>
		<path class="st2" d="M476.3,147.3h18v4.4h-12.7v5.1H493v4.4h-11.4v5.2h13v4.4h-18.4V147.3z"/>
		<path class="st2" d="M535.6,147.3h5.1V171h-4.9l-11.4-15.2V171h-5.1v-23.6h4.9l11.5,15.3V147.3z"/>
		<path class="st2" d="M564.1,147.3h19.8v4.5h-7.2V171h-5.3v-19.1h-7.2V147.3z"/>
		<path class="st2" d="M624.3,148.5c1.9,1.1,3.5,2.5,4.6,4.4s1.7,3.9,1.7,6.2c0,2.3-0.6,4.3-1.7,6.2s-2.6,3.3-4.6,4.4
			c-1.9,1.1-4.1,1.6-6.5,1.6s-4.5-0.5-6.5-1.6c-1.9-1.1-3.5-2.5-4.6-4.4c-1.1-1.9-1.7-3.9-1.7-6.2c0-2.3,0.6-4.3,1.7-6.2
			c1.1-1.9,2.6-3.3,4.6-4.4c1.9-1.1,4.1-1.6,6.5-1.6C620.2,146.9,622.4,147.5,624.3,148.5z M614.3,152.6c-1.1,0.7-2,1.6-2.7,2.7
			s-1,2.4-1,3.8c0,1.4,0.3,2.7,1,3.8c0.7,1.1,1.6,2.1,2.7,2.7c1.1,0.7,2.3,1,3.6,1s2.5-0.3,3.6-1c1.1-0.7,2-1.6,2.6-2.7
			c0.6-1.2,1-2.4,1-3.8c0-1.4-0.3-2.6-1-3.8c-0.6-1.1-1.5-2.1-2.6-2.7c-1.1-0.7-2.3-1-3.6-1S615.4,151.9,614.3,152.6z"/>
		<path class="st2" d="M666.4,152.1c-1.4-0.4-2.5-0.7-3.5-0.7c-0.9,0-1.7,0.2-2.2,0.5s-0.8,0.8-0.8,1.5c0,0.8,0.4,1.5,1.2,1.9
			c0.8,0.4,2,0.9,3.6,1.4s3,0.9,4,1.4s1.9,1.2,2.7,2.1c0.7,0.9,1.1,2.2,1.1,3.7c0,1.5-0.4,2.8-1.2,3.9s-1.9,1.9-3.3,2.5
			c-1.4,0.6-3,0.8-4.8,0.8c-1.9,0-3.8-0.3-5.6-1c-1.8-0.7-3.4-1.6-4.8-2.8l2.1-4.4c1.2,1.1,2.6,1.9,4.1,2.6s3,1,4.3,1
			c1.1,0,2-0.2,2.6-0.6c0.6-0.4,0.9-1,0.9-1.8c0-0.6-0.2-1.1-0.6-1.5c-0.4-0.4-0.9-0.7-1.6-1c-0.6-0.2-1.5-0.5-2.7-0.8
			c-1.6-0.5-2.9-0.9-4-1.4c-1-0.5-1.9-1.1-2.7-2.1c-0.7-0.9-1.1-2.1-1.1-3.7c0-1.4,0.4-2.7,1.1-3.7c0.8-1.1,1.8-1.9,3.2-2.5
			c1.4-0.6,3-0.9,4.8-0.9c1.6,0,3.2,0.2,4.8,0.7s3,1.1,4.2,1.9l-2.1,4.4C669.1,153.2,667.8,152.6,666.4,152.1z"/>
	</g>
</g>
<g>
	<defs>
		<polygon id="SVGID_3_" points="93,128.4 93,150.2 180.9,169.6 180.9,87.3 		"/>
	</defs>
	<use xlink:href="#SVGID_3_"  style="overflow:visible;fill:#FFFFFF;"/>
	<clipPath id="SVGID_4_">
		<use xlink:href="#SVGID_3_"  style="overflow:visible;"/>
	</clipPath>
	<rect x="93" y="87.3" class="st3" width="87.9" height="82.3"/>
</g>
<g>
	<defs>
		<polygon id="SVGID_5_" points="93,123.8 179.7,82.5 94.1,4 		"/>
	</defs>
	<use xlink:href="#SVGID_5_"  style="overflow:visible;fill:#FFFFFF;"/>
	<clipPath id="SVGID_6_">
		<use xlink:href="#SVGID_5_"  style="overflow:visible;"/>
	</clipPath>
	<rect x="93" y="4" class="st4" width="86.7" height="119.8"/>
</g>
<g>
	<defs>
		<rect id="SVGID_7_" x="2.3" y="2.3" width="698.7" height="177.6"/>
	</defs>
	<clipPath id="SVGID_8_">
		<use xlink:href="#SVGID_7_"  style="overflow:visible;"/>
	</clipPath>
	<polygon class="st5" points="162.8,169.9 91.2,153.4 13.4,170.3 	"/>
</g>
<g>
	<defs>
		<polygon id="SVGID_9_" points="14.9,144.7 2.3,167.9 22.6,163.8 88.3,150.5 89.6,6.7 		"/>
	</defs>
	<use xlink:href="#SVGID_9_"  style="overflow:visible;fill:#FFFFFF;"/>
	<clipPath id="SVGID_10_">
		<use xlink:href="#SVGID_9_"  style="overflow:visible;"/>
	</clipPath>
	<rect x="2.3" y="6.7" class="st6" width="87.3" height="161.2"/>
</g>
</svg>
