<?xml version="1.0" encoding="utf-8"?>
<!-- Generator: Adobe Illustrator 24.3.0, SVG Export Plug-In . SVG Version: 6.00 Build 0)  -->
<svg version="1.1" id="Layer_1" xmlns:svgjs="http://svgjs.com/svgjs"
	 xmlns="http://www.w3.org/2000/svg" xmlns:xlink="http://www.w3.org/1999/xlink" x="0px" y="0px" viewBox="0 0 512 512"
	 style="enable-background:new 0 0 512 512;" xml:space="preserve">
<style type="text/css">
	.st0{fill:#E1492E;}
	.st1{fill:#FFFFFF;}
</style>
<path class="st0" d="M487,77c-4.7-5.2-11.2-8.1-18.3-8.2c-7.2-0.2-14.4,2.7-19.6,8l-209,208.4l-71.6-77.6
	c-4.8-5.2-11.3-8.3-18.4-8.6c-7.1-0.3-14,2.1-19.2,6.9c-10.9,10-11.6,26.8-1.7,37.6l90.3,98c4.9,5.7,12.1,9,19.8,9
	c7.6,0,14.5-3,19.1-8.2l228.3-227.7c5.2-4.8,8-11.5,7.9-18.9C494.4,88.8,491.7,82.2,487,77z"/>
<path class="st1" d="M476.3,229.2c-15,0-26.8,11.8-26.8,26.8c0,106.7-86.8,193.5-193.5,193.5S62.5,362.7,62.5,256
	S149.3,62.5,256,62.5c15,0,26.8-11.8,26.8-26.8c0-15-11.8-26.8-26.8-26.8c-65.8,0-127.8,25.8-174.5,72.6
	C34.7,128.3,8.9,190.2,8.9,256c0,65.8,25.8,127.7,72.6,174.5c46.8,46.8,108.8,72.6,174.5,72.6c65.8,0,127.7-25.8,174.5-72.6
	c46.8-46.8,72.6-108.8,72.6-174.5C503.1,241,491.3,229.2,476.3,229.2z"/>
</svg>
